<svg xmlns="http://www.w3.org/2000/svg" viewBox="0 0 800 800">
    <path fill="#F16235" d="m252.793 71.073 476.318.131v35.634c0 .05-.082.131-.131.131h-3.08l-473.239-.131.132-35.765z"/>
    <path fill="#58C7DE" d="m296.366 506.127-17.153 61.125c-3.521 12.544-6.812 22.919-7.106 35.862-.283 12.418 1.597 28.209-5.009 39.361-4.323 7.297-11.472 9.856-19.299 10.654h-20.144v.018c-.433-.005-.873-.016-1.298-.016-11.938 0-11.958 18.553 0 18.553 2.889 0 5.802.017 8.71-.001h24.947c5.549 0 10.377 4.14 11.229 9.63h.001c.085.564.135 1.145.135 1.73v34.524c0 6.264-5.1 11.36-11.365 11.36H115.158c-6.264 0-11.36-5.096-11.36-11.36v-34.524c0-6.264 5.096-11.36 11.36-11.36h17.826c6.905.237 13.922.001 20.591.001 11.938 0 11.958-18.553 0-18.553-1.351 0-2.815.045-4.333.105v-.106h-23.268c-6.69-.903-12.735-3.086-16.54-7.987-7.825-10.081-6.243-27.19-6.363-38.997-.141-13.846-2.848-23.706-6.594-37.053l-17.671-62.966c-4.814-17.156-10.789-29.921-4.301-47.546 9.127-24.796 28.303-34.451 50.34-37.976l54.73 110.575c2.997 6.056 13.022 6.056 16.02 0l54.442-109.993c25.539 4.048 46.918 15.894 53.732 49.039.924 12.297-4.049 23.952-7.403 35.901z"/>
    <path d="M728.98 52.52H252.793c-10.305 0-18.684 8.38-18.684 18.684v35.634c0 7.744 4.734 14.397 11.459 17.227v99.481c0 11.938 18.553 11.958 18.553 0v-98.023h453.534V407.92c0 12.931 3.532 30.9-13.641 34.161-10.972 2.083-24.518 0-35.599 0H353.259c-11.938 0-11.958 18.553 0 18.553h128.367v46.191c-12.493 3.949-21.578 15.643-21.578 29.424 0 17.013 13.842 30.851 30.851 17.013 0 30.851-13.838 30.851-30.851 0-13.781-9.083-25.477-21.575-29.425v-46.191h74.467c42.537 0 87.021 3.784 129.431 0 39.908-3.561 32.132-47.431 32.132-75.806V124.064c6.724-2.831 11.456-9.483 11.456-17.226V71.205c-.001-10.305-8.381-18.685-18.685-18.685zM490.902 548.546c-6.785 0-12.302-5.517-12.302-12.298 0-6.785 5.517-12.302 12.302-12.302 6.781 0 12.298 5.517 12.298 12.302 0 6.781-5.517 12.298-12.298 12.298zM252.793 71.073l476.318.131v35.634c0 .05-.082.131-.131.131h-3.08l-473.239-.131.132-35.765z"/>
    <path d="M363.051 333.814c-8.941 0-16.216 7.275-16.216 16.211v61.489c0 8.941 7.275 16.216 16.216 16.216H407.3c8.941 0 16.216-7.274 16.216-16.216v-61.489c0-8.937-7.275-16.211-16.211-16.211h-44.249zm41.912 75.363h-39.575v-56.81h39.575v56.81zM559.72 290.521v120.93c0 8.978 7.302 16.279 16.279 16.279h44.122c8.978 0 16.279-7.302 16.279-16.279v-120.93c0-8.973-7.302-16.275-16.279-16.275h-44.122c-8.978 0-16.279 7.302-16.279 16.275zm18.553 2.278h39.575v116.378h-39.575V292.799zM529.852 333.762v-10.226c0-.681-.103-1.352-.26-2.012-1.291-10.501-10.162-18.687-21.006-18.687h-36.49c-10.436 0-18.924 8.488-18.924 18.924v87.044c0 10.436 8.488 18.924 18.924 18.924h38.832c10.436 0 18.924-8.488 18.924-18.924V374.97c-.001-11.937-18.553-11.957-18.553 0v33.835c0 .181-.19.371-.371.371h-38.832c-.181 0-.371-.19-.371-.371v-87.044c0-.186.186-.371.371-.371h36.49c1.471 0 2.712 1.241 2.713 2.712v9.66c0 4.852 4.267 9.501 9.276 9.276 5.026-.225 9.277-4.075 9.277-9.276z"/>
    <path d="M514.223 353.397a6.353 6.353 0 1 0 12.705 0 6.353 6.353 0 0 0-12.705 0zM384.789 249.791c0-2-.234-3.944-.649-5.821l43.953-28.049c4.548 3.48 10.212 5.574 16.369 5.574 6.293 0 12.076-2.181 16.674-5.802l46.217 28.571c-.267 1.523-.434 3.081-.434 4.68 0 14.898 12.121 27.019 27.019 27.019 14.898 0 27.019-12.121 27.019-27.019 0-3.724-.758-7.274-2.127-10.505l40.713-38.572c8.685-8.229-4.45-21.332-13.119-13.119l-40.253 38.138a26.818 26.818 0 0 0-12.233-2.96c-6.57 0-12.596 2.362-17.285 6.276l-45.728-28.268c.363-1.763.555-3.588.555-5.457 0-14.898-12.121-27.019-27.019-27.019s-27.019 12.121-27.019 27.019c0 2 .234 3.944.649 5.821l-43.952 28.049c-4.548-3.48-10.212-5.574-16.369-5.574-14.898 0-27.019 12.121-27.019 27.019 0 14.898 12.121 27.019 27.019 27.019 14.897-.001 27.019-12.122 27.019-27.02zm149.149-9.313c4.67 0 8.466 3.796 8.466 8.466s-3.796 8.466-8.466 8.466-8.466-3.796-8.466-8.466 3.795-8.466 8.466-8.466zm-89.477-54.467c4.67 0 8.466 3.796 8.466 8.466s-3.796 8.466-8.466 8.466-8.466-3.796-8.466-8.466c0-4.671 3.796-8.466 8.466-8.466zm-95.157 63.78c0-4.67 3.796-8.466 8.466-8.466s8.466 3.796 8.466 8.466-3.796 8.466-8.466 8.466-8.466-3.796-8.466-8.466zM619.758 176.735a6.383 6.383 0 1 0-12.767 0 6.383 6.383 0 0 0 12.767 0z"/>
    <path d="m648.391 192.04 4.094-44.88c.447-4.898-4.612-9.415-9.276-9.277l-43.824 1.302c-11.912.354-11.963 18.908 0 18.553l33.674-1-3.221 35.302c-1.085 11.886 17.475 11.812 18.553 0zM322.077 468.079c-.021-.509-.039-1.018-.142-1.557-7.689-40.176-37.065-59.536-72.819-64.332-2.154-1.263-4.682-1.713-6.979-1.061 22.042-16.609 36.384-42.918 36.384-72.578 0-50.138-40.793-90.931-90.935-90.931-50.137 0-90.931 40.793-90.931 90.931 0 29.505 14.19 55.694 36.035 72.318-.31.011-.622.01-.932.021-.851-.089-1.712-.077-2.566.095-41.248 2.139-84.524 38.8-75.701 83.612 7.033 35.72 21.974 69.867 29.6 105.472 4.25 19.845-1.611 41.906 8.303 60.849a36.744 36.744 0 0 0 5.844 8.231c-7.265 5.463-11.994 14.126-11.994 23.894v34.524c0 16.492 13.421 29.913 29.913 29.913h144.855c16.497 0 29.918-13.421 29.918-29.913v-34.524a29.93 29.93 0 0 0-.353-4.566l-9.168 1.413 9.168-1.422c-1.234-7.949-5.702-14.736-11.848-19.311 2.683-2.817 5.051-6.23 6.986-10.455 9.228-20.153 2.92-42.783 8.745-63.539l19.091-68.029c4.399-15.675 11.486-31.711 9.715-48.146-.034-.323-.129-.604-.189-.909zm-134.49 37.554-42.952-86.778c14.499-.445 29.295.493 42.634.61.106 0 .21.016.316.016.082 0 .161-.012.243-.012.677.005 1.36.013 2.029.013 12.982 0 26.893-.599 40.418-.096-14.229 28.749-28.458 57.499-42.688 86.247zm-72.379-177.082c0-39.91 32.468-72.378 72.378-72.378s72.382 32.468 72.382 72.378c0 37.706-28.994 68.731-65.852 72.047-4.932-.066-9.863-.13-14.796-.178-36.026-4.12-64.112-34.758-64.112-71.869zm181.158 177.576-17.153 61.125c-3.521 12.544-6.812 22.919-7.106 35.862-.283 12.418 1.597 28.209-5.009 39.361-4.323 7.297-11.472 9.856-19.299 10.654h-20.144v.018c-.433-.005-.873-.016-1.298-.016-11.938 0-11.958 18.553 0 18.553 2.889 0 5.802.017 8.71-.001h24.947c5.549 0 10.377 4.14 11.229 9.63h.001c.085.564.135 1.145.135 1.73v34.524c0 6.264-5.1 11.36-11.365 11.36H115.158c-6.264 0-11.36-5.096-11.36-11.36v-34.524c0-6.264 5.096-11.36 11.36-11.36h17.826c6.905.237 13.922.001 20.591.001 11.938 0 11.958-18.553 0-18.553-1.351 0-2.815.045-4.333.105v-.106h-23.268c-6.69-.903-12.735-3.086-16.54-7.987-7.825-10.081-6.243-27.19-6.363-38.997-.141-13.846-2.848-23.706-6.594-37.053l-17.671-62.966c-4.814-17.156-10.789-29.921-4.301-47.546 9.127-24.796 28.303-34.451 50.34-37.976l54.73 110.575c2.997 6.056 13.022 6.056 16.02 0l54.442-109.993c25.539 4.048 46.918 15.894 53.732 49.039.924 12.297-4.049 23.952-7.403 35.901z"/>
    <circle transform="rotate(-8.987 189.59 662.563)" cx="189.532" cy="662.407" r="10.436"/>
    <path fill="#F16235" d="M365.388 352.367h39.575v56.81h-39.575z"/>
    <path fill="#58C7DE" d="M578.273 292.799h39.575v116.378h-39.575z"/>
    <path fill="#F16235" d="M490.902 548.546c-6.785 0-12.302-5.517-12.302-12.298 0-6.785 5.517-12.302 12.302-12.302 6.781 0 12.298 5.517 12.298 12.302 0 6.781-5.517 12.298-12.298 12.298z"/>
    <circle transform="rotate(-12.621 533.934 248.945)" fill="#F16235" cx="533.937" cy="248.944" r="8.466"/>
    <circle fill="#58C7DE" cx="444.461" cy="194.476" r="8.466"/>
    <circle transform="rotate(-45.001 357.769 249.797)" fill="#F16235" cx="357.77" cy="249.791" r="8.466"/>
</svg>